HIERARCHY
ROOT Hips
{
	OFFSET -0.001795 -0.223333 0.028219
	CHANNELS 6 Xposition Yposition Zposition Zrotation Yrotation Xrotation 
	JOINT LeftUpLeg
	{
		OFFSET 0.069520 -0.091406 -0.006815
		CHANNELS 3 Zrotation Yrotation Xrotation
		JOINT LeftLeg
		{
			OFFSET 0.034277 -0.375199 -0.004496
			CHANNELS 3 Zrotation Yrotation Xrotation
			JOINT LeftFoot
			{
				OFFSET -0.013596 -0.397961 -0.043693
				CHANNELS 3 Zrotation Yrotation Xrotation
				JOINT LeftToe
				{
					OFFSET 0.026358 -0.055791 0.119288
					CHANNELS 3 Zrotation Yrotation Xrotation
					End Site
					{
						OFFSET 0.000000 0.000000 0.000000
					}
				}
			}
		}
	}
	JOINT RightUpLeg
	{
		OFFSET -0.067670 -0.090522 -0.004320
		CHANNELS 3 Zrotation Yrotation Xrotation
		JOINT RightLeg
		{
			OFFSET -0.038290 -0.382569 -0.008850
			CHANNELS 3 Zrotation Yrotation Xrotation
			JOINT RightFoot
			{
				OFFSET 0.015774 -0.398415 -0.042312
				CHANNELS 3 Zrotation Yrotation Xrotation
				JOINT RightToe
				{
					OFFSET -0.025372 -0.048144 0.123348
					CHANNELS 3 Zrotation Yrotation Xrotation
					End Site
					{
						OFFSET 0.000000 0.000000 0.000000
					}
				}
			}
		}
	}
	JOINT Spine
	{
		OFFSET -0.002533 0.108963 -0.026696
		CHANNELS 3 Zrotation Yrotation Xrotation
		JOINT Spine1
		{
			OFFSET 0.005487 0.135180 0.001092
			CHANNELS 3 Zrotation Yrotation Xrotation
			JOINT Spine2
			{
				OFFSET 0.001457 0.052922 0.025425
				CHANNELS 3 Zrotation Yrotation Xrotation
				JOINT Neck
				{
					OFFSET -0.002778 0.213870 -0.042857
					CHANNELS 3 Zrotation Yrotation Xrotation
					JOINT Head
					{
						OFFSET 0.005152 0.064970 0.051349
						CHANNELS 3 Zrotation Yrotation Xrotation
						End Site
						{
							OFFSET 0.000000 0.000000 0.000000
						}
					}
				}
				JOINT LeftShoulder
				{
					OFFSET 0.078845 0.121749 -0.034090
					CHANNELS 3 Zrotation Yrotation Xrotation
					JOINT LeftArm
					{
						OFFSET 0.090977 0.030469 -0.008868
						CHANNELS 3 Zrotation Yrotation Xrotation
						JOINT LeftForeArm
						{
							OFFSET 0.259612 -0.012772 -0.027456
							CHANNELS 3 Zrotation Yrotation Xrotation
							JOINT LeftHand
							{
								OFFSET 0.249234 0.008986 -0.001171
								CHANNELS 3 Zrotation Yrotation Xrotation
								End Site
								{
									OFFSET 0.000000 0.000000 0.000000
								}
							}
						}
					}
				}
				JOINT RightShoulder
				{
					OFFSET -0.081759 0.118833 -0.038615
					CHANNELS 3 Zrotation Yrotation Xrotation
					JOINT RightArm
					{
						OFFSET -0.096012 0.032551 -0.009143
						CHANNELS 3 Zrotation Yrotation Xrotation
						JOINT RightForeArm
						{
							OFFSET -0.253742 -0.013329 -0.021401
							CHANNELS 3 Zrotation Yrotation Xrotation
							JOINT RightHand
							{
								OFFSET -0.255298 0.007772 -0.005559
								CHANNELS 3 Zrotation Yrotation Xrotation
								End Site
								{
									OFFSET 0.000000 0.000000 0.000000
								}
							}
						}
					}
				}
			}
		}
	}
}
MOTION
Frames: 5
Frame Time: 0.050000
0.008962 0.944504 0.006845 0.106147 -3.109664 13.271192 11.119683 -0.134516 -21.221343 -2.077220 0.140337 9.107669 -2.720882 -1.588283 9.096905 0.000000 0.000000 0.000000 -5.178923 1.092832 -13.342349 -5.164923 0.130485 -4.260845 -3.325259 -12.668466 17.284172 0.000000 0.000000 0.000000 1.743495 -0.395430 5.317284 -6.697726 3.071118 -0.443906 -9.824754 20.283861 -1.857374 24.204772 -10.015306 -21.133886 0.000000 0.000000 0.000000 -3.191430 -36.964969 11.321587 -14.143586 -43.798386 0.953538 20.026901 -37.172884 -6.952260 0.000000 0.000000 0.000000 -8.319235 32.895722 11.445251 -7.723387 56.658584 -3.668077 -17.785161 2.606798 0.075948 0.000000 0.000000 0.000000 
0.008833 0.945063 0.008312 0.004757 -2.427267 12.990891 11.196658 -0.164510 -21.063757 -2.077493 0.126798 9.381908 -3.359925 -2.746673 8.931592 0.000000 0.000000 0.000000 -4.898199 1.043239 -12.540925 -5.369894 0.119389 -4.591446 -3.378954 -12.632075 17.226770 0.000000 0.000000 0.000000 1.228046 -0.345101 5.355487 -6.754404 3.085970 -0.592643 -10.127819 21.071891 -2.607884 24.680708 -10.516795 -20.372334 0.000000 0.000000 0.000000 -3.256613 -37.058332 11.164949 -13.576880 -43.701964 0.746275 20.777916 -36.954371 -7.320067 0.000000 0.000000 0.000000 -8.991265 33.632301 11.611319 -10.842789 54.952044 -4.730755 -15.079995 -0.354137 0.355312 0.000000 0.000000 0.000000 
0.008873 0.945650 0.009192 -0.381180 -1.658006 13.112851 11.705837 -0.132429 -21.429900 -2.183710 0.131273 9.798783 -3.775744 -3.749861 8.274281 0.000000 0.000000 0.000000 -4.592569 1.026006 -12.176549 -4.870654 0.066447 -4.940514 -3.760852 -13.177864 17.456022 0.000000 0.000000 0.000000 1.178788 -0.325716 5.006135 -7.197063 3.280681 -0.563710 -9.908084 21.157712 -3.249822 25.237400 -11.074750 -19.792343 0.000000 0.000000 0.000000 -3.466631 -37.253475 11.168639 -12.600369 -43.396513 0.473721 21.668095 -36.675676 -7.618353 0.000000 0.000000 0.000000 -9.727160 34.484782 11.740350 -12.753900 53.516284 -5.299614 -13.409864 -1.562974 0.409025 0.000000 0.000000 0.000000 
0.009076 0.946053 0.009947 -0.593878 -1.128629 13.007558 11.845619 -0.141514 -21.539943 -2.257372 0.136006 9.843552 -4.209327 -4.460573 8.368186 0.000000 0.000000 0.000000 -4.406312 0.996264 -11.698358 -4.802670 0.069760 -4.897944 -3.909312 -13.286711 17.102206 0.000000 0.000000 0.000000 0.758567 -0.281282 4.931622 -7.345123 3.329073 -0.833932 -9.663060 21.400363 -3.650830 25.524971 -11.249245 -19.709292 0.000000 0.000000 0.000000 -3.240723 -37.239045 11.087167 -11.917936 -43.204210 0.230273 22.757639 -36.344536 -7.984523 0.000000 0.000000 0.000000 -9.395906 35.005021 12.158904 -13.212969 52.417024 -5.358947 -13.124054 -1.526879 0.394683 0.000000 0.000000 0.000000 
0.009525 0.946397 0.010635 -0.901258 -0.547043 12.816614 12.072182 -0.147182 -21.287432 -2.181855 0.113675 9.578974 -4.465751 -5.053410 8.043506 0.000000 0.000000 0.000000 -4.252230 0.961748 -11.184561 -4.649104 0.045270 -5.141646 -4.065939 -13.499161 17.433373 0.000000 0.000000 0.000000 0.583731 -0.253880 4.687865 -7.590589 3.433192 -0.899377 -9.238575 21.200470 -3.882617 25.281998 -11.357806 -19.076884 0.000000 0.000000 0.000000 -3.161478 -36.574931 10.823739 -11.578781 -43.349978 0.124634 23.551857 -36.037177 -8.228482 0.000000 0.000000 0.000000 -9.117022 35.130746 12.336740 -11.896814 51.548196 -4.765535 -13.422480 -0.113198 0.286009 0.000000 0.000000 0.000000 
